<svg width="116" height="80" viewBox="0 0 116 80" fill="none" xmlns="http://www.w3.org/2000/svg">
<path d="M57.8721 0C89.8477 0 115.745 17.0212 115.745 37.8115V40C115.745 62.1277 93.2521 80 57.8721 80C22.6138 79.9999 0 62.1277 0 40V37.8115C0.000119144 17.0213 25.8966 0.00011858 57.8721 0Z" fill="#2D3277"/>
<path d="M113.715 37.7947C113.715 57.3883 88.8062 73.3308 58.1861 73.3308C27.566 73.3308 2.65692 57.3883 2.65692 37.7947C2.65692 18.2011 27.566 2.25854 58.1861 2.25854C88.8062 2.25854 113.715 18.2011 113.715 37.7947Z" fill="#FFE600"/>
<path d="M39.6353 26.6261C39.6353 26.6261 39.0273 27.2339 39.392 27.7202C40.2431 28.8144 42.918 29.4224 45.7143 28.8145C47.2949 28.4497 49.4833 26.7476 51.4286 25.167C53.617 23.4649 55.8055 21.6412 57.994 21.0333C60.304 20.3038 61.763 20.6685 62.7356 20.9117C63.8299 21.2765 65.0456 22.0059 67.1125 23.4649C70.8815 26.2612 86.2007 39.6352 88.8755 41.9453C90.9424 40.9726 100.426 36.9605 113.313 34.0425C112.219 27.234 108.085 20.9118 101.763 15.8054C93.0092 19.4528 82.1885 21.3981 71.6109 16.2917C71.6109 16.2917 65.8968 13.6168 60.1825 13.7384C51.7934 13.9816 48.2675 17.5075 44.377 21.3981L39.6353 26.6261Z" fill="white"/>
<path d="M88.2676 43.4042C88.146 43.2826 70.2737 27.7202 66.2615 24.6807C63.9515 22.9786 62.614 22.4922 61.2766 22.2491C60.5471 22.1275 59.5745 22.2492 58.845 22.4923C57.0213 22.9787 54.4682 24.6807 52.2797 26.3829C49.9697 28.2066 47.9027 29.9088 45.9574 30.2735C43.4042 30.8815 40.3648 30.1519 39.0274 29.1793C38.4195 28.8145 38.0547 28.3283 37.8116 27.8419C37.3253 26.6261 38.2979 25.6534 38.4195 25.5319L43.2827 20.1823L44.9849 18.4801C43.4043 18.7233 41.9453 19.0881 40.4863 19.4528C38.6626 19.9391 36.9606 20.4254 35.2584 20.4254C34.5289 20.4254 30.6383 19.8175 29.9088 19.5744C25.4103 18.3586 21.5197 17.1428 15.6838 14.468C8.75369 19.696 4.0121 26.1398 2.67471 33.3131C3.64736 33.5562 5.34943 34.0425 5.95733 34.1641C21.7628 37.6899 26.6261 41.3374 27.5988 42.0668C28.5714 40.9726 29.9087 40.3647 31.4893 40.3647C33.1914 40.3647 34.772 41.2158 35.7446 42.5532C36.5957 41.8237 37.9332 41.2158 39.5137 41.2158C40.2432 41.2158 40.9726 41.3373 41.8237 41.5805C43.6474 42.1884 44.4986 43.4042 44.9849 44.4985C45.5928 44.2553 46.3222 44.0121 47.1732 44.0121C48.0243 44.0121 48.8755 44.2553 49.8481 44.62C52.7661 45.8358 53.2523 48.7539 53.0092 50.9423H53.6171C57.1429 50.9423 59.9392 53.7386 59.9392 57.2645C59.9392 58.3587 59.6961 59.3314 59.2098 60.1825C60.1824 60.6688 62.4925 61.8845 64.6809 61.6414C66.383 61.3982 66.9909 60.9118 67.2341 60.5471C67.3557 60.3039 67.5988 60.0608 67.3556 59.8176L62.8572 54.8329C62.8572 54.8329 62.1277 54.1033 62.3708 53.8601C62.614 53.617 63.1004 53.9818 63.4651 54.225C65.7751 56.1702 68.4499 58.9666 68.4499 58.9666C68.4499 58.9666 68.693 59.3314 69.6657 59.5745C70.5168 59.6961 72.0973 59.5745 73.1916 58.7234C73.4347 58.4802 73.7994 58.2371 73.921 57.9939C75.0152 56.535 73.7995 55.076 73.7995 55.076L68.5714 49.2402C68.5714 49.2402 67.8421 48.5106 68.0852 48.2675C68.3284 48.0243 68.8146 48.3891 69.1793 48.6323C70.8815 49.9696 73.1916 52.4013 75.3801 54.5898C75.8664 54.9545 77.8117 56.1702 80.3649 54.4681C81.9454 53.3738 82.3102 52.1581 82.1886 51.1854C82.067 49.9696 81.0943 48.9969 81.0943 48.9969L74.0426 41.8237C74.0426 41.8237 73.3132 41.2158 73.5564 40.851C73.7995 40.6079 74.2857 40.9727 74.6505 41.2158C76.9605 43.1611 83.0396 48.7538 83.0396 48.7538C83.1612 48.7538 85.228 50.3344 87.9028 48.6323C88.8755 48.0243 89.4834 47.1733 89.4834 46.0791C89.605 44.4985 88.2676 43.4042 88.2676 43.4042V43.4042Z" fill="white"/>
<path d="M53.8602 52.5231C52.766 52.5231 51.5502 53.131 51.4286 53.131C51.307 53.131 51.4286 52.6447 51.5501 52.4015C51.6717 52.1584 53.1307 47.7815 49.6049 46.2009C46.9301 44.9851 45.228 46.3225 44.7416 46.9304C44.6201 47.052 44.4985 47.052 44.4985 46.9304C44.4985 46.2009 44.1337 44.0124 41.7021 43.2829C38.2979 42.1887 36.231 44.6204 35.6231 45.4715C35.3799 43.5262 33.7994 42.0671 31.7326 42.0671C29.5441 42.0671 27.8419 43.7692 27.8419 45.9577C27.8419 48.1461 29.5441 49.8484 31.7326 49.8484C32.8268 49.8484 33.6778 49.4836 34.4073 48.7541V48.8756C34.2857 49.8483 33.9209 53.3742 37.5684 54.7116C39.0273 55.3195 40.2432 54.8332 41.3375 54.1037C41.7022 53.8605 41.7021 53.9821 41.7021 54.2252C41.5805 55.0763 41.7022 57.0215 44.4985 58.1158C46.5654 58.9668 47.7811 58.1158 48.5106 57.3863C48.8754 57.0216 48.997 57.1432 48.997 57.6296C49.1186 60.1828 51.307 62.2496 53.8602 62.2496C56.535 62.2496 58.7234 60.0611 58.7234 57.3863C58.7234 54.7115 56.535 52.5231 53.8602 52.5231V52.5231Z" fill="white"/>
<path d="M89.0037 41.5238C83.5282 36.7766 70.8736 25.6998 67.3449 23.1436C65.3981 21.6829 64.0597 20.8309 62.8429 20.5874C62.3562 20.4657 61.6261 20.2222 60.6526 20.2222C59.8009 20.2222 58.8275 20.3439 57.8541 20.7091C55.6639 21.4395 53.4737 23.1436 51.2835 24.8477L51.1618 24.9694C49.215 26.5518 47.1465 28.1343 45.5647 28.4994C44.8346 28.6212 44.2261 28.7428 43.4961 28.7428C41.7926 28.7428 40.2108 28.2559 39.6024 27.5256C39.4807 27.4039 39.6024 27.1604 39.8457 26.917L44.7128 21.683C48.4849 17.9095 52.0136 14.3795 60.2877 14.136H60.6526C65.7631 14.136 70.8736 16.4487 71.482 16.6922C76.3491 19.0049 81.2162 20.2222 86.205 20.2222C91.4372 20.2222 96.7911 18.8833 102.388 16.3271C101.78 15.8402 101.05 15.2315 100.441 14.7446C95.4526 16.9357 90.8288 17.9094 86.205 17.9094C81.5813 17.9094 76.9576 16.814 72.4555 14.6229C72.2121 14.5012 66.6149 11.8232 60.6526 11.8232H60.166C53.2304 11.945 49.3367 14.3795 46.7814 16.5705C44.2262 16.5705 42.036 17.3008 40.0892 17.7877C38.3857 18.2746 36.8038 18.6399 35.3437 18.6399H33.5185C31.815 18.6399 23.2975 16.5705 16.6052 13.8926C15.8752 14.3795 15.2668 14.8664 14.5368 15.3533C21.5941 18.2746 30.2332 20.4657 32.9101 20.7091C33.6402 20.7091 34.4919 20.8308 35.3437 20.8308C37.1689 20.8308 38.8724 20.344 40.6975 19.8571C41.7926 19.6137 42.8877 19.2484 43.9828 19.005L43.0093 19.9788L38.1422 25.3347C37.7772 25.6998 36.9254 26.7953 37.4122 28.0125C37.6555 28.4994 38.1422 28.9862 38.7506 29.4731C39.9674 30.2035 42.0359 30.8122 43.9828 30.8122C44.7129 30.8122 45.4429 30.6904 46.0513 30.5687C48.1198 30.0818 50.3101 28.3777 52.5003 26.5519C54.3254 25.0912 56.8806 23.2653 58.8275 22.6567C59.4358 22.5349 60.0442 22.4133 60.6526 22.4133H61.1394C62.4778 22.535 63.6946 23.0219 66.0065 24.726C70.0219 27.7691 87.9085 43.3496 88.0302 43.4713C88.0302 43.4713 89.1253 44.4452 89.1253 46.1493C89.1253 47.0014 88.517 47.8535 87.6652 48.4621C86.9352 48.949 86.0834 49.1924 85.3533 49.1924C84.1365 49.1924 83.2849 48.5838 83.2849 48.5838C83.2849 48.5838 77.0793 42.9844 74.889 41.0369C74.524 40.6717 74.1589 40.4282 73.7939 40.4282C73.5506 40.4282 73.4289 40.5501 73.3072 40.6718C72.9421 41.1587 73.3072 41.7672 73.7939 42.1324L80.9729 49.3141C80.9729 49.3141 81.8246 50.1662 81.9463 51.2617C81.9463 52.4789 81.4597 53.4527 80.2429 54.1831C79.3912 54.7917 78.5393 55.0351 77.6876 55.0351C76.5925 55.0351 75.8624 54.5482 75.6191 54.4264L74.524 53.4527C72.6988 51.6269 70.752 49.6793 69.2919 48.5838C68.9269 48.3404 68.5618 47.9752 68.1968 47.9752C68.0751 47.9752 67.8317 47.9751 67.71 48.2186C67.5883 48.3403 67.4666 48.7055 67.8317 49.3141C67.9533 49.5576 68.1968 49.6794 68.1968 49.6794L73.4288 55.522C73.4288 55.522 74.524 56.8609 73.5506 57.9565L73.3072 58.2L72.8204 58.6868C71.9687 59.4171 70.7519 59.5389 70.2652 59.5389H69.5352C69.0485 59.4172 68.6834 59.2954 68.4401 59.052C68.1967 58.6868 65.5198 56.1306 63.3296 54.3048C63.0863 54.0613 62.7212 53.8178 62.3561 53.8178C62.2345 53.8178 61.9911 53.9396 61.8694 54.0614C61.5044 54.5483 62.1128 55.2785 62.3561 55.522L66.8583 60.3909C66.8583 60.3909 66.8582 60.5127 66.7365 60.7562C66.6149 60.9996 66.0066 61.4864 64.4248 61.7299H63.8164C62.1129 61.7299 60.4093 60.8778 59.4358 60.3909C59.8009 59.5389 60.0442 58.5652 60.0442 57.5914C60.0442 53.9397 57.1241 51.0183 53.4737 51.0183H53.2303C53.352 49.3142 53.1087 46.1494 49.8234 44.8104C48.85 44.4452 47.9982 44.2018 47.0247 44.2018C46.2947 44.2018 45.6863 44.3234 44.9563 44.5669C44.2262 43.2279 43.131 42.2542 41.6709 41.7673C40.8191 41.5239 40.0891 41.4021 39.2373 41.4021C37.8989 41.4021 36.6821 41.7673 35.587 42.6193C35.0584 41.9682 34.3903 41.4442 33.6321 41.086C32.874 40.7279 32.0451 40.5448 31.2066 40.5501C29.7465 40.5501 28.2864 41.1586 27.313 42.1324C25.9745 41.0369 20.4989 37.6286 5.77586 34.2204C5.04579 34.0987 3.46404 33.6119 2.49061 33.2467C2.36893 33.977 2.2472 34.8291 2.12552 35.6812C2.12552 35.6812 4.80252 36.2897 5.41092 36.4115C20.3773 39.698 25.3661 43.2279 26.2178 43.8366C25.9745 44.5669 25.8527 45.2973 25.8527 46.0276C25.8527 49.1925 28.4079 51.6269 31.4499 51.6269C31.8149 51.6269 32.18 51.6269 32.545 51.5052C33.0317 53.8179 34.4919 55.5221 36.8038 56.3741C37.5338 56.6176 38.1422 56.7392 38.7506 56.7392C39.1156 56.7392 39.6024 56.7392 40.0892 56.6175C40.4542 57.713 41.4275 59.0519 43.6177 59.904C44.3478 60.2692 45.0779 60.3909 45.808 60.3909C46.4164 60.3909 47.0248 60.2693 47.5115 60.0258C48.4849 62.4603 50.9185 64.1643 53.5954 64.1643C55.4206 64.1643 57.1241 63.434 58.3409 62.0951C59.436 62.7037 61.6261 63.7992 63.938 63.7992H64.7897C67.1016 63.5558 68.075 62.582 68.5617 61.9734C68.6834 61.8517 68.6835 61.7299 68.8051 61.6082C69.2919 61.7299 69.9002 61.8517 70.6303 61.8517C71.8471 61.8517 73.0639 61.4864 74.2807 60.5126C75.4974 59.6606 76.3491 58.4433 76.3491 57.3478C76.7142 57.4696 77.2009 57.4695 77.5659 57.4695C78.7827 57.4695 80.1211 57.1044 81.3379 56.2523C83.6498 54.7916 84.0149 52.7224 84.0149 51.5052C84.3799 51.6269 84.8666 51.6269 85.2317 51.6269C86.4485 51.6269 87.6653 51.2617 88.7604 50.5314C90.2205 49.5576 91.0723 48.2187 91.1939 46.6363C91.3156 45.5408 90.9505 44.4451 90.4637 43.4713C94.3574 41.7672 103.118 38.6024 113.583 36.1679C113.583 35.3159 113.461 34.5855 113.218 33.7335C100.685 36.4114 91.3156 40.4283 89.0037 41.5238V41.5238ZM53.8387 61.8517C51.4051 61.8517 49.4583 59.904 49.3367 57.4695C49.3367 57.2261 49.3366 56.7392 48.8499 56.7392C48.6066 56.7392 48.4849 56.861 48.2415 56.9828C47.7548 57.4697 47.0247 57.9565 46.0513 57.9565C45.5646 57.9565 45.0779 57.8348 44.5912 57.5914C42.0359 56.4959 41.9143 54.7917 42.036 54.0614C42.036 53.8179 42.036 53.6962 41.9143 53.5744L41.7925 53.4527H41.6709C41.5492 53.4527 41.4275 53.4527 41.1841 53.6961C40.4541 54.183 39.7241 54.4264 38.994 54.4264C38.629 54.4264 38.1423 54.3048 37.7772 54.1831C34.3703 52.8441 34.6136 49.6793 34.8569 48.7055C34.8569 48.4621 34.857 48.3403 34.7353 48.2186L34.4918 47.9752L34.2486 48.2186C33.5185 48.8272 32.6667 49.1924 31.815 49.1924C29.8681 49.1924 28.2863 47.61 28.2863 45.6624C28.2863 43.7148 29.8681 42.1324 31.815 42.1324C33.5185 42.1324 35.1003 43.4714 35.3437 45.1755L35.4653 46.1493L35.9521 45.2972C35.9521 45.1755 37.4122 42.9845 40.0892 43.1063C40.5759 43.1063 41.0625 43.2279 41.6709 43.3496C43.7394 43.9583 44.1044 45.9059 44.1044 46.6363C44.1044 47.1232 44.4695 47.123 44.4695 47.123C44.5912 47.123 44.8345 47.0014 44.8345 46.8797C45.1995 46.5145 46.0514 45.7841 47.3898 45.7841C47.9982 45.7841 48.6066 45.9059 49.3367 46.271C52.622 47.7317 51.1618 51.8703 51.1618 51.992C50.9185 52.7223 50.7968 52.9658 51.1618 53.2092H51.4051C51.5268 53.2092 51.7702 53.2092 52.0135 53.0875C52.5002 52.9658 53.1086 52.7224 53.717 52.7224C56.1506 52.7224 58.2191 54.7917 58.2191 57.2261C58.3407 59.9041 56.2722 61.8517 53.8387 61.8517V61.8517Z" fill="#2D3277"/>
</svg>
